<mxfile host="app.diagrams.net" modified="2024-05-14T05:35:16.245Z" agent="Mozilla/5.0 (Windows NT 10.0; Win64; x64) AppleWebKit/537.36 (KHTML, like Gecko) Chrome/123.0.0.0 Safari/537.36 Edg/123.0.0.0" etag="EDlB6ObhJBAJ3gTmHy6J" version="24.4.0" type="github">
  <diagram name="第 1 页" id="4e1_gTZCf4V-DGfyovcc">
    <mxGraphModel dx="1379" dy="817" grid="1" gridSize="10" guides="1" tooltips="1" connect="1" arrows="1" fold="1" page="1" pageScale="1" pageWidth="827" pageHeight="1169" math="0" shadow="0">
      <root>
        <mxCell id="0" />
        <mxCell id="1" parent="0" />
        <mxCell id="RhiwDtoEUJxYBVWu5SQG-1" value="接口层" style="rounded=0;whiteSpace=wrap;html=1;fontSize=20;fontStyle=1" vertex="1" parent="1">
          <mxGeometry x="80" y="160" width="120" height="60" as="geometry" />
        </mxCell>
        <mxCell id="RhiwDtoEUJxYBVWu5SQG-2" value="算&lt;div style=&quot;font-size: 20px;&quot;&gt;法&lt;/div&gt;&lt;div style=&quot;font-size: 20px;&quot;&gt;模&lt;/div&gt;&lt;div style=&quot;font-size: 20px;&quot;&gt;块&lt;/div&gt;&lt;div style=&quot;font-size: 20px;&quot;&gt;核&lt;/div&gt;&lt;div style=&quot;font-size: 20px;&quot;&gt;心&lt;/div&gt;&lt;div style=&quot;font-size: 20px;&quot;&gt;层&lt;/div&gt;" style="rounded=0;whiteSpace=wrap;html=1;fontSize=20;fontStyle=1" vertex="1" parent="1">
          <mxGeometry x="80" y="240" width="120" height="310" as="geometry" />
        </mxCell>
        <mxCell id="RhiwDtoEUJxYBVWu5SQG-4" value="基础&lt;div&gt;架构层&lt;/div&gt;" style="rounded=0;whiteSpace=wrap;html=1;fontSize=20;fontStyle=1" vertex="1" parent="1">
          <mxGeometry x="80" y="570" width="120" height="60" as="geometry" />
        </mxCell>
        <mxCell id="RhiwDtoEUJxYBVWu5SQG-5" value="" style="rounded=0;whiteSpace=wrap;html=1;" vertex="1" parent="1">
          <mxGeometry x="210" y="160" width="610" height="60" as="geometry" />
        </mxCell>
        <mxCell id="RhiwDtoEUJxYBVWu5SQG-6" value="" style="rounded=0;whiteSpace=wrap;html=1;" vertex="1" parent="1">
          <mxGeometry x="210" y="240" width="610" height="310" as="geometry" />
        </mxCell>
        <mxCell id="RhiwDtoEUJxYBVWu5SQG-7" value="" style="rounded=0;whiteSpace=wrap;html=1;" vertex="1" parent="1">
          <mxGeometry x="210" y="570" width="610" height="60" as="geometry" />
        </mxCell>
      </root>
    </mxGraphModel>
  </diagram>
</mxfile>
